<svg xmlns="http://www.w3.org/2000/svg" version="1.1" xmlns:xlink="http://www.w3.org/1999/xlink" xmlns:svgjs="http://svgjs.dev/svgjs" width="2000" height="1999" viewBox="0 0 2000 1999"><g transform="matrix(1,0,0,1,-0.431486880466764,-0.4312711370263287)"><svg viewBox="0 0 343 343" data-background-color="#ffffff" preserveAspectRatio="xMidYMid meet" height="1999" width="2000" xmlns="http://www.w3.org/2000/svg" xmlns:xlink="http://www.w3.org/1999/xlink"><g id="tight-bounds" transform="matrix(1,0,0,1,0.0740000000000407,0.07400000000001228)"><svg viewBox="0 0 342.85155851775386 342.85155851775386" height="342.85155851775386" width="342.85155851775386"><g><svg></svg></g><g><svg viewBox="0 0 342.85155851775386 342.85155851775386" height="342.85155851775386" width="342.85155851775386"><g><path d="M0 171.426c0-94.676 76.75-171.426 171.426-171.426 94.676 0 171.426 76.75 171.426 171.426 0 94.676-76.75 171.426-171.426 171.426-94.676 0-171.426-76.75-171.426-171.426zM171.426 331.069c88.168 0 159.643-71.475 159.643-159.643 0-88.168-71.475-159.643-159.643-159.643-88.168 0-159.643 71.475-159.643 159.643 0 88.168 71.475 159.643 159.643 159.643z" data-fill-palette-color="tertiary" fill="#f7a582" stroke="transparent"></path><ellipse rx="164.56874808852186" ry="164.56874808852186" cx="171.42577925887693" cy="171.42577925887693" fill="#f7a582" stroke="transparent" stroke-width="0" fill-opacity="1" data-fill-palette-color="tertiary"></ellipse></g><g transform="matrix(1,0,0,1,64.84655864529837,106.09701005615803)"><svg viewBox="0 0 213.1584412271571 130.6575384054378" height="130.6575384054378" width="213.1584412271571"><g><svg viewBox="0 0 213.1584412271571 130.6575384054378" height="130.6575384054378" width="213.1584412271571"><g><svg viewBox="0 0 213.1584412271571 130.6575384054378" height="130.6575384054378" width="213.1584412271571"><g><svg viewBox="0 0 213.1584412271571 130.6575384054378" height="130.6575384054378" width="213.1584412271571"><g id="textblocktransform"><svg viewBox="0 0 213.1584412271571 130.6575384054378" height="130.6575384054378" width="213.1584412271571" id="textblock"><g><svg viewBox="0 0 213.1584412271571 130.6575384054378" height="130.6575384054378" width="213.1584412271571"><g transform="matrix(1,0,0,1,0,0)"><svg width="213.1584412271571" viewBox="3.7 -35 57.099999999999994 35" height="130.6575384054378" data-palette-color="#ffffff"><path d="M14.45 0L3.7 0 3.7-35 14.45-35Q23.7-35 28.08-30.3 32.45-25.6 32.45-17.4L32.45-17.4Q32.45-9.35 28.08-4.67 23.7 0 14.45 0L14.45 0ZM7.9-31.5L7.9-3.5 14.35-3.5Q19.45-3.5 22.48-5.18 25.5-6.85 26.8-9.98 28.1-13.1 28.1-17.4L28.1-17.4Q28.1-21.8 26.8-24.95 25.5-28.1 22.48-29.8 19.45-31.5 14.35-31.5L14.35-31.5 7.9-31.5ZM47.5-12.75L37.95-12.75 37.95-16.3 47.5-16.3 47.5-25.4 51.25-25.4 51.25-16.3 60.8-16.3 60.8-12.75 51.25-12.75 51.25-3.6 47.5-3.6 47.5-12.75Z" opacity="1" transform="matrix(1,0,0,1,0,0)" fill="#ffffff" class="wordmark-text-0" data-fill-palette-color="quaternary" id="text-0"></path></svg></g></svg></g></svg></g></svg></g><g></g></svg></g></svg></g></svg></g></svg></g><defs></defs></svg><rect width="342.85155851775386" height="342.85155851775386" fill="none" stroke="none" visibility="hidden"></rect></g></svg></g></svg>